<svg xmlns="http://www.w3.org/2000/svg" version="1.1" xmlns:xlink="http://www.w3.org/1999/xlink" xmlns:svgjs="http://svgjs.com/svgjs" width="1440" height="560" preserveAspectRatio="none" viewBox="0 0 1440 560"><g mask="url(&quot;#SvgjsMask1002&quot;)" fill="none"><path d="M -277.22938925881766,297 C -181.23,270.4 10.77,166.6 202.77061074118234,164 C 394.77,161.4 490.77,298.6 682.7706107411823,284 C 874.77,269.4 970.77,60 1162.7706107411823,91 C 1354.77,122 1587.32,445.8 1642.7706107411823,439 C 1698.22,432.2 1480.55,133.4 1440,57" stroke="rgba(51, 0, 255, 1)" stroke-width="2"></path><path d="M -937.3926854087883,279 C -841.39,321.8 -649.39,499.4 -457.39268540878834,493 C -265.39,486.6 -169.39,258 22.60731459121166,247 C 214.61,236 310.61,473.2 502.60731459121166,438 C 694.61,402.8 795.13,85.6 982.6073145912117,71 C 1170.09,56.4 1348.52,306.2 1440,365" stroke="rgba(51, 0, 255, 1)" stroke-width="2"></path><path d="M -166.64277981269373,415 C -70.64,354.2 121.36,103.2 313.35722018730627,111 C 505.36,118.8 601.36,454 793.3572201873062,454 C 985.36,454 1081.36,134.4 1273.3572201873062,111 C 1465.36,87.6 1720.03,320.8 1753.3572201873062,337 C 1786.69,353.2 1502.67,221 1440,192" stroke="rgba(51, 0, 255, 1)" stroke-width="2"></path><path d="M -69.07590505691121,74 C 26.92,152.8 218.92,446.6 410.9240949430888,468 C 602.92,489.4 698.92,201.6 890.9240949430888,181 C 1082.92,160.4 1178.92,373.6 1370.9240949430887,365 C 1562.92,356.4 1837.11,142.4 1850.9240949430887,138 C 1864.74,133.6 1522.18,302 1440,343" stroke="rgba(51, 0, 255, 1)" stroke-width="2"></path></g><defs><mask id="SvgjsMask1002"><rect width="1440" height="560" fill="#ffffff"></rect></mask></defs></svg>