<svg xmlns="http://www.w3.org/2000/svg" version="1.1" xmlns:xlink="http://www.w3.org/1999/xlink" xmlns:svgjs="http://svgjs.com/svgjs" width="1440" height="560" preserveAspectRatio="none" viewBox="0 0 1440 560"><g mask="url(&quot;#SvgjsMask1003&quot;)" fill="none"><path d="M63.7 178.13L128.65 215.63L128.65 290.63L63.7 328.13L-1.25 290.63L-1.25 215.63zM258.56 290.63L323.51 328.13L323.51 403.13L258.56 440.63L193.61 403.13L193.61 328.13zM193.61 403.13L258.56 440.63L258.56 515.63L193.61 553.13L128.65 515.63L128.65 440.63zM388.47 65.63L453.42 103.13L453.42 178.13L388.47 215.63L323.51 178.13L323.51 103.13zM388.47 290.63L453.42 328.13L453.42 403.13L388.47 440.63L323.51 403.13L323.51 328.13zM453.42 -46.87L518.38 -9.37L518.38 65.63L453.42 103.13L388.47 65.63L388.47 -9.37zM648.28 290.63L713.24 328.13L713.24 403.13L648.28 440.63L583.33 403.13L583.33 328.13zM648.28 515.63L713.24 553.13L713.24 628.13L648.28 665.63L583.33 628.13L583.33 553.13zM713.24 403.13L778.19 440.63L778.19 515.63L713.24 553.13L648.28 515.63L648.28 440.63zM908.1 515.63L973.05 553.13L973.05 628.13L908.1 665.63L843.14 628.13L843.14 553.13zM1297.82 65.63L1362.77 103.13L1362.77 178.13L1297.82 215.63L1232.87 178.13L1232.87 103.13zM1427.73 290.63L1492.68 328.13L1492.68 403.13L1427.73 440.63L1362.78 403.13L1362.78 328.13zM1557.64 65.63L1622.59 103.13L1622.59 178.13L1557.64 215.63L1492.68 178.13L1492.68 103.13zM1492.68 403.13L1557.64 440.63L1557.64 515.63L1492.68 553.13L1427.73 515.63L1427.73 440.63z" stroke="rgba(0, 102, 0, 1)" stroke-width="2"></path><path d="M56.2 178.13 a7.5 7.5 0 1 0 15 0 a7.5 7.5 0 1 0 -15 0zM121.15 215.63 a7.5 7.5 0 1 0 15 0 a7.5 7.5 0 1 0 -15 0zM121.15 290.63 a7.5 7.5 0 1 0 15 0 a7.5 7.5 0 1 0 -15 0zM56.2 328.13 a7.5 7.5 0 1 0 15 0 a7.5 7.5 0 1 0 -15 0zM-8.75 290.63 a7.5 7.5 0 1 0 15 0 a7.5 7.5 0 1 0 -15 0zM-8.75 215.63 a7.5 7.5 0 1 0 15 0 a7.5 7.5 0 1 0 -15 0zM251.06 290.63 a7.5 7.5 0 1 0 15 0 a7.5 7.5 0 1 0 -15 0zM316.01 328.13 a7.5 7.5 0 1 0 15 0 a7.5 7.5 0 1 0 -15 0zM316.01 403.13 a7.5 7.5 0 1 0 15 0 a7.5 7.5 0 1 0 -15 0zM251.06 440.63 a7.5 7.5 0 1 0 15 0 a7.5 7.5 0 1 0 -15 0zM186.11 403.13 a7.5 7.5 0 1 0 15 0 a7.5 7.5 0 1 0 -15 0zM186.11 328.13 a7.5 7.5 0 1 0 15 0 a7.5 7.5 0 1 0 -15 0zM251.06 515.63 a7.5 7.5 0 1 0 15 0 a7.5 7.5 0 1 0 -15 0zM186.11 553.13 a7.5 7.5 0 1 0 15 0 a7.5 7.5 0 1 0 -15 0zM121.15 515.63 a7.5 7.5 0 1 0 15 0 a7.5 7.5 0 1 0 -15 0zM121.15 440.63 a7.5 7.5 0 1 0 15 0 a7.5 7.5 0 1 0 -15 0zM380.97 65.63 a7.5 7.5 0 1 0 15 0 a7.5 7.5 0 1 0 -15 0zM445.92 103.13 a7.5 7.5 0 1 0 15 0 a7.5 7.5 0 1 0 -15 0zM445.92 178.13 a7.5 7.5 0 1 0 15 0 a7.5 7.5 0 1 0 -15 0zM380.97 215.63 a7.5 7.5 0 1 0 15 0 a7.5 7.5 0 1 0 -15 0zM316.01 178.13 a7.5 7.5 0 1 0 15 0 a7.5 7.5 0 1 0 -15 0zM316.01 103.13 a7.5 7.5 0 1 0 15 0 a7.5 7.5 0 1 0 -15 0zM380.97 290.63 a7.5 7.5 0 1 0 15 0 a7.5 7.5 0 1 0 -15 0zM445.92 328.13 a7.5 7.5 0 1 0 15 0 a7.5 7.5 0 1 0 -15 0zM445.92 403.13 a7.5 7.5 0 1 0 15 0 a7.5 7.5 0 1 0 -15 0zM380.97 440.63 a7.5 7.5 0 1 0 15 0 a7.5 7.5 0 1 0 -15 0zM445.92 -46.87 a7.5 7.5 0 1 0 15 0 a7.5 7.5 0 1 0 -15 0zM510.88 -9.37 a7.5 7.5 0 1 0 15 0 a7.5 7.5 0 1 0 -15 0zM510.88 65.63 a7.5 7.5 0 1 0 15 0 a7.5 7.5 0 1 0 -15 0zM380.97 -9.37 a7.5 7.5 0 1 0 15 0 a7.5 7.5 0 1 0 -15 0zM640.78 290.63 a7.5 7.5 0 1 0 15 0 a7.5 7.5 0 1 0 -15 0zM705.74 328.13 a7.5 7.5 0 1 0 15 0 a7.5 7.5 0 1 0 -15 0zM705.74 403.13 a7.5 7.5 0 1 0 15 0 a7.5 7.5 0 1 0 -15 0zM640.78 440.63 a7.5 7.5 0 1 0 15 0 a7.5 7.5 0 1 0 -15 0zM575.83 403.13 a7.5 7.5 0 1 0 15 0 a7.5 7.5 0 1 0 -15 0zM575.83 328.13 a7.5 7.5 0 1 0 15 0 a7.5 7.5 0 1 0 -15 0zM640.78 515.63 a7.5 7.5 0 1 0 15 0 a7.5 7.5 0 1 0 -15 0zM705.74 553.13 a7.5 7.5 0 1 0 15 0 a7.5 7.5 0 1 0 -15 0zM705.74 628.13 a7.5 7.5 0 1 0 15 0 a7.5 7.5 0 1 0 -15 0zM640.78 665.63 a7.5 7.5 0 1 0 15 0 a7.5 7.5 0 1 0 -15 0zM575.83 628.13 a7.5 7.5 0 1 0 15 0 a7.5 7.5 0 1 0 -15 0zM575.83 553.13 a7.5 7.5 0 1 0 15 0 a7.5 7.5 0 1 0 -15 0zM770.69 440.63 a7.5 7.5 0 1 0 15 0 a7.5 7.5 0 1 0 -15 0zM770.69 515.63 a7.5 7.5 0 1 0 15 0 a7.5 7.5 0 1 0 -15 0zM900.6 515.63 a7.5 7.5 0 1 0 15 0 a7.5 7.5 0 1 0 -15 0zM965.55 553.13 a7.5 7.5 0 1 0 15 0 a7.5 7.5 0 1 0 -15 0zM965.55 628.13 a7.5 7.5 0 1 0 15 0 a7.5 7.5 0 1 0 -15 0zM900.6 665.63 a7.5 7.5 0 1 0 15 0 a7.5 7.5 0 1 0 -15 0zM835.64 628.13 a7.5 7.5 0 1 0 15 0 a7.5 7.5 0 1 0 -15 0zM835.64 553.13 a7.5 7.5 0 1 0 15 0 a7.5 7.5 0 1 0 -15 0zM1290.32 65.63 a7.5 7.5 0 1 0 15 0 a7.5 7.5 0 1 0 -15 0zM1355.27 103.13 a7.5 7.5 0 1 0 15 0 a7.5 7.5 0 1 0 -15 0zM1355.27 178.13 a7.5 7.5 0 1 0 15 0 a7.5 7.5 0 1 0 -15 0zM1290.32 215.63 a7.5 7.5 0 1 0 15 0 a7.5 7.5 0 1 0 -15 0zM1225.37 178.13 a7.5 7.5 0 1 0 15 0 a7.5 7.5 0 1 0 -15 0zM1225.37 103.13 a7.5 7.5 0 1 0 15 0 a7.5 7.5 0 1 0 -15 0zM1420.23 290.63 a7.5 7.5 0 1 0 15 0 a7.5 7.5 0 1 0 -15 0zM1485.18 328.13 a7.5 7.5 0 1 0 15 0 a7.5 7.5 0 1 0 -15 0zM1485.18 403.13 a7.5 7.5 0 1 0 15 0 a7.5 7.5 0 1 0 -15 0zM1420.23 440.63 a7.5 7.5 0 1 0 15 0 a7.5 7.5 0 1 0 -15 0zM1355.28 403.13 a7.5 7.5 0 1 0 15 0 a7.5 7.5 0 1 0 -15 0zM1355.28 328.13 a7.5 7.5 0 1 0 15 0 a7.5 7.5 0 1 0 -15 0zM1550.14 65.63 a7.5 7.5 0 1 0 15 0 a7.5 7.5 0 1 0 -15 0zM1615.09 103.13 a7.5 7.5 0 1 0 15 0 a7.5 7.5 0 1 0 -15 0zM1615.09 178.13 a7.5 7.5 0 1 0 15 0 a7.5 7.5 0 1 0 -15 0zM1550.14 215.63 a7.5 7.5 0 1 0 15 0 a7.5 7.5 0 1 0 -15 0zM1485.18 178.13 a7.5 7.5 0 1 0 15 0 a7.5 7.5 0 1 0 -15 0zM1485.18 103.13 a7.5 7.5 0 1 0 15 0 a7.5 7.5 0 1 0 -15 0zM1550.14 440.63 a7.5 7.5 0 1 0 15 0 a7.5 7.5 0 1 0 -15 0zM1550.14 515.63 a7.5 7.5 0 1 0 15 0 a7.5 7.5 0 1 0 -15 0zM1485.18 553.13 a7.5 7.5 0 1 0 15 0 a7.5 7.5 0 1 0 -15 0zM1420.23 515.63 a7.5 7.5 0 1 0 15 0 a7.5 7.5 0 1 0 -15 0z" fill="rgba(0, 102, 0, 1)"></path><path d="M16.94 116.35L60.24 141.35L60.24 191.35L16.94 216.35L-26.36 191.35L-26.36 141.35zM103.55 266.35L146.85 291.35L146.85 341.35L103.55 366.35L60.24 341.35L60.24 291.35zM146.85 341.35L190.15 366.35L190.15 416.35L146.85 441.35L103.55 416.35L103.55 366.35zM190.15 -33.65L233.45 -8.65L233.45 41.35L190.15 66.35L146.85 41.35L146.85 -8.65zM233.45 191.35L276.75 216.35L276.75 266.35L233.45 291.35L190.15 266.35L190.15 216.35zM320.06 41.35L363.36 66.35L363.36 116.35L320.06 141.35L276.75 116.35L276.75 66.35zM276.75 116.35L320.06 141.35L320.06 191.35L276.75 216.35L233.45 191.35L233.45 141.35zM276.75 416.35L320.06 441.35L320.06 491.35L276.75 516.35L233.45 491.35L233.45 441.35zM320.06 491.35L363.36 516.35L363.36 566.35L320.06 591.35L276.75 566.35L276.75 516.35zM363.36 -33.65L406.66 -8.65L406.66 41.35L363.36 66.35L320.06 41.35L320.06 -8.65zM536.57 116.35L579.87 141.35L579.87 191.35L536.57 216.35L493.27 191.35L493.27 141.35zM623.18 116.35L666.48 141.35L666.48 191.35L623.18 216.35L579.87 191.35L579.87 141.35zM753.08 341.35L796.39 366.35L796.39 416.35L753.08 441.35L709.78 416.35L709.78 366.35zM796.39 116.35L839.69 141.35L839.69 191.35L796.39 216.35L753.08 191.35L753.08 141.35zM796.39 266.35L839.69 291.35L839.69 341.35L796.39 366.35L753.08 341.35L753.08 291.35zM969.6 116.35L1012.9 141.35L1012.9 191.35L969.6 216.35L926.29 191.35L926.29 141.35zM1142.81 116.35L1186.11 141.35L1186.11 191.35L1142.81 216.35L1099.5 191.35L1099.5 141.35zM1186.11 491.35L1229.41 516.35L1229.41 566.35L1186.11 591.35L1142.81 566.35L1142.81 516.35zM1229.41 -33.65L1272.71 -8.65L1272.71 41.35L1229.41 66.35L1186.11 41.35L1186.11 -8.65zM1272.71 191.35L1316.02 216.35L1316.02 266.35L1272.71 291.35L1229.41 266.35L1229.41 216.35zM1229.41 416.35L1272.71 441.35L1272.71 491.35L1229.41 516.35L1186.11 491.35L1186.11 441.35zM1359.32 41.35L1402.62 66.35L1402.62 116.35L1359.32 141.35L1316.02 116.35L1316.02 66.35z" stroke="rgba(51, 153, 51, 1)" stroke-width="2"></path></g><defs><mask id="SvgjsMask1003"><rect width="1440" height="560" fill="#ffffff"></rect></mask></defs></svg>